<?xml version="1.0" encoding="UTF-8" standalone="no"?>
<svg
   width="700"
   height="1641"
   viewBox="0 0 700 1641"
   fill="none"
   data-vsvg="002"
   class="theme_treehouse_svg_preview"
   version="1.1"
   id="svg274"
   sodipodi:docname="theme_treehouse.svg"
   inkscape:version="1.2.2 (b0a8486541, 2022-12-01)"
   xmlns:inkscape="http://www.inkscape.org/namespaces/inkscape"
   xmlns:sodipodi="http://sodipodi.sourceforge.net/DTD/sodipodi-0.dtd"
   xmlns="http://www.w3.org/2000/svg"
   xmlns:svg="http://www.w3.org/2000/svg">
  <sodipodi:namedview
     id="namedview276"
     pagecolor="#ffffff"
     bordercolor="#999999"
     borderopacity="1"
     inkscape:showpageshadow="0"
     inkscape:pageopacity="0"
     inkscape:pagecheckerboard="0"
     inkscape:deskcolor="#d1d1d1"
     showgrid="false"
     inkscape:zoom="2.1401584"
     inkscape:cx="502.76652"
     inkscape:cy="318.668"
     inkscape:window-width="1920"
     inkscape:window-height="1048"
     inkscape:window-x="0"
     inkscape:window-y="0"
     inkscape:window-maximized="1"
     inkscape:current-layer="g115" />
  <defs
     id="defs69">
    <pattern
       id="theme_treehouse_library_image_10_id"
       width="1"
       height="1"
       patternunits="objectBoundingBox">
      <image
         href="#library_image_10_url"
         width="125"
         height="178"
         preserveAspectRatio="xMidYMid slice"
         id="image2" />
    </pattern>
    <pattern
       id="theme_treehouse_library_image_10_id_2"
       width="1"
       height="1"
       patternunits="objectBoundingBox">
      <image
         href="#library_image_10_url"
         width="181"
         height="98"
         preserveAspectRatio="xMidYMid slice"
         id="image5" />
    </pattern>
    <pattern
       id="theme_treehouse_library_image_03_id"
       width="1"
       height="1"
       patternunits="objectBoundingBox">
      <image
         href="#library_image_03_url"
         width="170"
         height="75"
         preserveAspectRatio="xMidYMid slice"
         id="image8" />
    </pattern>
    <pattern
       id="theme_treehouse_library_image_03_id_2"
       width="1"
       height="1"
       patternunits="objectBoundingBox">
      <image
         href="#library_image_03_url"
         width="70"
         height="174"
         preserveAspectRatio="xMidYMid slice"
         id="image11" />
    </pattern>
    <pattern
       id="theme_treehouse_library_image_05_id"
       width="1"
       height="1"
       patternunits="objectBoundingBox">
      <image
         href="#library_image_05_url"
         width="170"
         height="178"
         preserveAspectRatio="xMidYMid slice"
         id="image14" />
    </pattern>
    <pattern
       id="theme_treehouse_library_image_05_id_2"
       width="1"
       height="1"
       patternunits="objectBoundingBox">
      <image
         href="#library_image_05_url"
         width="175"
         height="174"
         preserveAspectRatio="xMidYMid slice"
         id="image17" />
    </pattern>
    <pattern
       id="theme_treehouse_library_image_13_id"
       width="1"
       height="1"
       patternunits="objectBoundingBox">
      <image
         href="#library_image_13_url"
         width="382"
         height="75"
         preserveAspectRatio="xMidYMid slice"
         id="image20" />
    </pattern>
    <pattern
       id="theme_treehouse_library_image_13_id_2"
       width="1"
       height="1"
       patternunits="objectBoundingBox">
      <image
         href="#library_image_13_url"
         width="181"
         height="110"
         preserveAspectRatio="xMidYMid slice"
         id="image23" />
    </pattern>
    <pattern
       id="theme_treehouse_s_text_image_default_image_id"
       width="1"
       height="1"
       patternunits="objectBoundingBox">
      <image
         href="#s_text_image_default_image_url"
         width="350"
         height="310"
         preserveAspectRatio="xMidYMid slice"
         id="image26" />
    </pattern>
    <pattern
       id="theme_treehouse_s_reference_demo_image_1_id"
       preserveAspectRatio="xMidYMid slice"
       width="100%"
       height="100%"
       viewBox="0 0 24 24"
       patternunits="objectBoundingBox">
      <image
         href="/web/image/website.s_reference_demo_image_1"
         width="24"
         height="24"
         id="image29" />
    </pattern>
    <pattern
       id="theme_treehouse_s_reference_demo_image_2_id"
       preserveAspectRatio="xMidYMid slice"
       width="100%"
       height="100%"
       viewBox="0 0 24 24"
       patternunits="objectBoundingBox">
      <image
         href="/web/image/website.s_reference_demo_image_2"
         width="24"
         height="24"
         id="image32" />
    </pattern>
    <pattern
       id="theme_treehouse_s_reference_demo_image_3_id"
       preserveAspectRatio="xMidYMid slice"
       width="100%"
       height="100%"
       viewBox="0 0 24 24"
       patternunits="objectBoundingBox">
      <image
         href="/web/image/website.s_reference_demo_image_3"
         width="24"
         height="24"
         id="image35" />
    </pattern>
    <pattern
       id="theme_treehouse_s_reference_demo_image_4_id"
       preserveAspectRatio="xMidYMid slice"
       width="100%"
       height="100%"
       viewBox="0 0 24 24"
       patternunits="objectBoundingBox">
      <image
         href="/web/image/website.s_reference_demo_image_4"
         width="24"
         height="24"
         id="image38" />
    </pattern>
    <pattern
       id="theme_treehouse_s_reference_demo_image_5_id"
       preserveAspectRatio="xMidYMid slice"
       width="100%"
       height="100%"
       viewBox="0 0 24 24"
       patternunits="objectBoundingBox">
      <image
         href="/web/image/website.s_reference_demo_image_5"
         width="24"
         height="24"
         id="image41" />
    </pattern>
    <pattern
       id="theme_treehouse_library_image_16_id"
       width="1"
       height="1"
       patternunits="objectBoundingBox">
      <image
         href="#library_image_16_url"
         width="99"
         height="174"
         preserveAspectRatio="xMidYMid slice"
         id="image44" />
    </pattern>
    <pattern
       id="theme_treehouse_library_image_14_id"
       width="1"
       height="1"
       patternunits="objectBoundingBox">
      <image
         href="#library_image_14_url"
         width="143"
         height="216"
         preserveAspectRatio="xMidYMid slice"
         id="image47" />
    </pattern>
    <filter
       id="filter_readability_theme_treehouse"
       x="0"
       y="0"
       width="1"
       height="1">
      <feColorMatrix
         in="SourceGraphic"
         type="saturate"
         values="0"
         id="feColorMatrix50" />
      <feComponentTransfer
         id="feComponentTransfer58">
        <feFuncR
           type="table"
           tableValues="1 0"
           id="feFuncR52" />
        <feFuncG
           type="table"
           tableValues="1 0"
           id="feFuncG54" />
        <feFuncB
           type="table"
           tableValues="1 0"
           id="feFuncB56" />
      </feComponentTransfer>
      <feComponentTransfer
         id="feComponentTransfer66">
        <feFuncR
           type="linear"
           slope="10000"
           intercept="-4999.5"
           id="feFuncR60" />
        <feFuncG
           type="linear"
           slope="10000"
           intercept="-4999.5"
           id="feFuncG62" />
        <feFuncB
           type="linear"
           slope="10000"
           intercept="-4999.5"
           id="feFuncB64" />
      </feComponentTransfer>
    </filter>
  </defs>
  <rect
     width="700"
     height="1641"
     fill="#ACACAC"
     id="rect71" />
  <g
     clip-path="url(#clip0_148_2)"
     class="theme_treehouse"
     id="g265">
    <rect
       width="700"
       height="1641"
       fill="#F6F6F6"
       id="rect73" />
    <g
       class="svgc_menu"
       id="g93">
      <path
         d="M700 0H0V65H700V0Z"
         fill="#MENU_COLOR"
         class="svgc_menu_bg"
         id="path75" />
      <path
         d="M622.5 12H591.5C587.358 12 584 15.3579 584 19.5C584 23.6421 587.358 27 591.5 27H622.5C626.642 27 630 23.6421 630 19.5C630 15.3579 626.642 12 622.5 12Z"
         fill="#3AADAA"
         id="path77" />
      <path
         d="M571.5 12H540.5C536.358 12 533 15.3579 533 19.5C533 23.6421 536.358 27 540.5 27H571.5C575.642 27 579 23.6421 579 19.5C579 15.3579 575.642 12 571.5 12Z"
         fill="#MENU_COLOR"
         fill-opacity="0.1"
         class="svgc_invert"
         filter="url(#filter_readability_theme_treehouse)"
         id="path79" />
      <path
         d="M108.5 12H77.5C73.3579 12 70 15.3579 70 19.5C70 23.6421 73.3579 27 77.5 27H108.5C112.642 27 116 23.6421 116 19.5C116 15.3579 112.642 12 108.5 12Z"
         fill="#MENU_COLOR"
         fill-opacity="0.1"
         class="svgc_invert"
         filter="url(#filter_readability_theme_treehouse)"
         id="path81" />
      <path
         d="M456 41H419V48H456V41Z"
         fill="#MENU_COLOR"
         fill-opacity="0.3"
         class="svgc_invert"
         filter="url(#filter_readability_theme_treehouse)"
         id="path83" />
      <path
         d="M398 41H361V48H398V41Z"
         fill="#MENU_COLOR"
         fill-opacity="0.3"
         class="svgc_invert"
         filter="url(#filter_readability_theme_treehouse)"
         id="path85" />
      <path
         d="M340 41H303V48H340V41Z"
         fill="#MENU_COLOR"
         fill-opacity="0.3"
         class="svgc_invert"
         filter="url(#filter_readability_theme_treehouse)"
         id="path87" />
      <path
         d="M282 41H245V48H282V41Z"
         fill="#MENU_COLOR"
         class="svgc_invert"
         filter="url(#filter_readability_theme_treehouse)"
         id="path89" />
      <path
         d="M339.586 24.8472V23.3262H335.845V16.1202H334V24.8472H339.586ZM344.266 24.9672C345.036 24.9672 345.729 24.7912 346.346 24.4402C346.965 24.0902 347.453 23.5802 347.813 22.9122C348.173 22.2452 348.352 21.4352 348.352 20.4832C348.352 19.5322 348.172 18.7222 347.812 18.0542C347.453 17.3872 346.965 16.8782 346.347 16.5272C345.729 16.1762 345.035 16.0002 344.265 16.0002C343.49 16.0002 342.794 16.1762 342.177 16.5272C341.561 16.8772 341.073 17.3872 340.716 18.0542C340.358 18.7222 340.179 19.5322 340.179 20.4842C340.179 21.4322 340.358 22.2402 340.716 22.9082C341.046 23.5477 341.553 24.0788 342.177 24.4382C342.794 24.7902 343.49 24.9662 344.265 24.9662L344.266 24.9672ZM344.266 23.3342C343.853 23.3433 343.446 23.2291 343.098 23.0062C342.765 22.7872 342.508 22.4662 342.324 22.0432C342.141 21.6202 342.049 21.1002 342.049 20.4832C342.049 19.8672 342.141 19.3472 342.324 18.9232C342.507 18.5002 342.765 18.1792 343.098 17.9612C343.446 17.7381 343.852 17.6239 344.265 17.6332C344.711 17.6332 345.1 17.7422 345.433 17.9612C345.765 18.1792 346.023 18.5012 346.206 18.9242C346.39 19.3472 346.481 19.8672 346.481 20.4842C346.481 21.1002 346.39 21.6202 346.206 22.0432C346.023 22.4662 345.766 22.7872 345.433 23.0062C345.085 23.2294 344.679 23.3436 344.266 23.3342ZM353.543 24.9662C354.276 24.9662 354.927 24.8182 355.495 24.5212C356.053 24.234 356.517 23.7934 356.833 23.2512C357.157 22.7012 357.319 22.0432 357.319 21.2762V20.1762H353.667V21.5662H355.539L355.535 21.6922C355.518 21.9292 355.465 22.1442 355.378 22.3372L355.305 22.4772C355.146 22.7514 354.908 22.9719 354.623 23.1102C354.327 23.2602 353.969 23.3342 353.552 23.3342C353.092 23.3342 352.692 23.2232 352.354 23.0002C352.016 22.7772 351.754 22.4522 351.57 22.0262C351.386 21.6002 351.293 21.0832 351.293 20.4752C351.293 19.8672 351.387 19.3522 351.574 18.9302C351.762 18.5082 352.024 18.1862 352.361 17.9652C352.711 17.74 353.119 17.6244 353.535 17.6332C353.773 17.6332 353.991 17.6632 354.189 17.7222C354.386 17.7822 354.562 17.8682 354.717 17.9802C354.872 18.0922 355.003 18.2282 355.111 18.3892C355.219 18.5492 355.303 18.7332 355.363 18.9412H357.238C357.183 18.5226 357.045 18.1191 356.833 17.7542C356.624 17.3951 356.348 17.0791 356.021 16.8232C355.681 16.5568 355.297 16.3514 354.886 16.2162C354.441 16.0693 353.974 15.9964 353.505 16.0002C352.955 15.9952 352.409 16.0981 351.898 16.3032C351.407 16.5023 350.964 16.8028 350.598 17.1852C350.214 17.5908 349.919 18.0721 349.731 18.5982C349.525 19.1532 349.422 19.7842 349.422 20.4922C349.422 21.4122 349.595 22.2072 349.94 22.8762C350.262 23.521 350.765 24.0584 351.387 24.4232C352.007 24.7852 352.725 24.9662 353.543 24.9662ZM362.501 24.9662C363.271 24.9662 363.964 24.7912 364.582 24.4402C365.2 24.0902 365.689 23.5802 366.048 22.9122C366.408 22.2452 366.588 21.4352 366.588 20.4832C366.588 19.5322 366.408 18.7222 366.048 18.0542C365.688 17.3872 365.2 16.8782 364.582 16.5272C363.964 16.1762 363.271 16.0002 362.501 16.0002C361.725 16.0002 361.029 16.1762 360.413 16.5272C359.796 16.8772 359.309 17.3872 358.951 18.0542C358.593 18.7222 358.414 19.5322 358.414 20.4842C358.414 21.4322 358.593 22.2402 358.951 22.9082C359.309 23.5762 359.796 24.0862 360.413 24.4382C361.029 24.7902 361.725 24.9662 362.501 24.9662ZM362.501 23.3342C362.055 23.3342 361.665 23.2242 361.333 23.0062C361.001 22.7872 360.743 22.4662 360.56 22.0432C360.376 21.6202 360.285 21.1002 360.285 20.4832C360.285 19.8672 360.376 19.3472 360.56 18.9232C360.743 18.5002 361 18.1792 361.333 17.9612C361.681 17.7379 362.088 17.6237 362.501 17.6332C362.947 17.6332 363.336 17.7422 363.668 17.9612C364.001 18.1792 364.258 18.5012 364.442 18.9242C364.625 19.3472 364.717 19.8672 364.717 20.4842C364.717 21.1002 364.625 21.6202 364.442 22.0432C364.258 22.4662 364.001 22.7872 363.668 23.0062C363.32 23.2292 362.914 23.3434 362.501 23.3342Z"
         fill="#MENU_COLOR"
         class="svgc_invert"
         filter="url(#filter_readability_theme_treehouse)"
         id="path91" />
    </g>
    <g
       class="s_sidegrid"
       id="g115">
      <rect
         y="65"
         width="700"
         height="342"
         fill="#FFFFFF"
         id="rect95" />
      <path
         d="M700 407L612.1 347.79C547.95 304.619 464.95 300.672 397.2 337.947C311.8 384.915 235.45 405.601 184.4 353.136C177.95 346.541 169.35 342.494 160.2 341.644L141.55 339.895C126.7 338.496 113.25 330.552 104.95 318.21C84.45 287.83 57.4 257.801 0 273.14V407H700Z"
         fill="#7C6576"
         id="path97" />
      <path
         d="M572 231.208H432V233.208H572V231.208Z"
         fill="#FFFFFF"
         fill-opacity="0.4"
         class="svgc_invert"
         filter="url(#filter_readability_theme_treehouse)"
         id="path99" />
      <path
         d="M562.987 236.208H432V238.208H562.987V236.208Z"
         fill="#FFFFFF"
         fill-opacity="0.4"
         class="svgc_invert"
         filter="url(#filter_readability_theme_treehouse)"
         id="path101" />
      <rect
         x="248"
         y="109"
         width="125"
         height="178"
         fill="url(#theme_treehouse_library_image_10_id)"
         class="img_reference_library_image_10"
         id="rect107" />
      <rect
         x="70"
         y="109"
         width="170"
         height="75"
         fill="url(#theme_treehouse_library_image_03_id)"
         class="img_reference_library_image_03"
         id="rect109" />
      <rect
         width="170"
         height="178"
         x="70"
         y="192"
         fill="url(#theme_treehouse_library_image_05_id)"
         class="img_reference_library_image_05"
         id="rect111" />
      <rect
         x="248"
         y="295"
         width="382"
         height="75"
         fill="url(#theme_treehouse_library_image_13_id)"
         class="img_reference_library_image_13"
         id="rect113" />
      <text fill="#383E45" style="white-space: pre" xml:space="preserve" font-size="32" letter-spacing="0em">
          <tspan x="432" y="176">Welcome</tspan>
          <tspan x="432" y="216">Message</tspan>
      </text>
    </g>
    <g
       class="s_numbers_list"
       id="g157">
      <rect
         y="407"
         width="700"
         height="233"
         fill="#7C6576"
         id="rect117" />
      <path
         d="M630 497H390V498H630V497Z"
         fill="#7C6576"
         fill-opacity="0.1"
         class="svgc_invert"
         filter="url(#filter_readability_theme_treehouse)"
         id="path119" />
      <path
         d="M630 549H390V550H630V549Z"
         fill="#7C6576"
         fill-opacity="0.1"
         class="svgc_invert"
         filter="url(#filter_readability_theme_treehouse)"
         id="path121" />
      <path
         d="M265 499H71V501H265V499Z"
         fill="#7C6576"
         fill-opacity="0.4"
         class="svgc_invert"
         filter="url(#filter_readability_theme_treehouse)"
         id="path123" />
      <path
         d="M251 504H71V506H251V504Z"
         fill="#7C6576"
         fill-opacity="0.4"
         class="svgc_invert"
         filter="url(#filter_readability_theme_treehouse)"
         id="path125" />
      <path
         d="M201 509H71V511H201V509Z"
         fill="#7C6576"
         fill-opacity="0.4"
         class="svgc_invert"
         filter="url(#filter_readability_theme_treehouse)"
         id="path127" />
      <path
         d="M224 514H71V516H224V514Z"
         fill="#7C6576"
         fill-opacity="0.4"
         class="svgc_invert"
         filter="url(#filter_readability_theme_treehouse)"
         id="path129" />
      <path
         d="M72.4551 481V466.684H83.0703V469.105H75.3457V472.279H82.5332V474.691H75.3457V478.588H83.3438V481H72.4551ZM95.209 481H92.4648V475.707C92.4648 474.587 92.4062 473.865 92.2891 473.539C92.1719 473.207 91.9798 472.95 91.7129 472.768C91.4525 472.585 91.1367 472.494 90.7656 472.494C90.2904 472.494 89.8639 472.624 89.4863 472.885C89.1087 473.145 88.8483 473.49 88.7051 473.92C88.5684 474.35 88.5 475.144 88.5 476.303V481H85.7559V470.629H88.3047V472.152C89.2096 470.98 90.349 470.395 91.7227 470.395C92.3281 470.395 92.8815 470.505 93.3828 470.727C93.8841 470.941 94.2617 471.218 94.5156 471.557C94.776 471.895 94.9551 472.279 95.0527 472.709C95.1569 473.139 95.209 473.754 95.209 474.555V481ZM102.758 470.629V472.816H100.883V476.996C100.883 477.842 100.899 478.337 100.932 478.48C100.971 478.617 101.052 478.731 101.176 478.822C101.306 478.913 101.462 478.959 101.645 478.959C101.898 478.959 102.266 478.871 102.748 478.695L102.982 480.824C102.344 481.098 101.622 481.234 100.814 481.234C100.32 481.234 99.8737 481.153 99.4766 480.99C99.0794 480.821 98.7865 480.606 98.5977 480.346C98.4154 480.079 98.2884 479.721 98.2168 479.271C98.1582 478.952 98.1289 478.308 98.1289 477.338V472.816H96.8691V470.629H98.1289V468.568L100.883 466.967V470.629H102.758ZM107.289 481H104.545V470.629H107.094V472.104C107.53 471.407 107.921 470.948 108.266 470.727C108.617 470.505 109.014 470.395 109.457 470.395C110.082 470.395 110.684 470.567 111.264 470.912L110.414 473.305C109.952 473.005 109.522 472.855 109.125 472.855C108.741 472.855 108.415 472.963 108.148 473.178C107.882 473.386 107.67 473.767 107.514 474.32C107.364 474.874 107.289 476.033 107.289 477.797V481ZM111.156 470.629H114.076L116.557 477.992L118.979 470.629H121.82L118.158 480.609L117.504 482.416C117.263 483.021 117.032 483.484 116.811 483.803C116.596 484.122 116.345 484.379 116.059 484.574C115.779 484.776 115.43 484.932 115.014 485.043C114.604 485.154 114.138 485.209 113.617 485.209C113.09 485.209 112.572 485.154 112.064 485.043L111.82 482.895C112.25 482.979 112.637 483.021 112.982 483.021C113.62 483.021 114.092 482.833 114.398 482.455C114.704 482.084 114.939 481.609 115.102 481.029L111.156 470.629ZM132.396 481V469.105H128.148V466.684H139.525V469.105H135.287V481H132.396ZM141.01 469.223V466.684H143.754V469.223H141.01ZM141.01 481V470.629H143.754V481H141.01ZM151.332 470.629V472.816H149.457V476.996C149.457 477.842 149.473 478.337 149.506 478.48C149.545 478.617 149.626 478.731 149.75 478.822C149.88 478.913 150.036 478.959 150.219 478.959C150.473 478.959 150.84 478.871 151.322 478.695L151.557 480.824C150.919 481.098 150.196 481.234 149.389 481.234C148.894 481.234 148.448 481.153 148.051 480.99C147.654 480.821 147.361 480.606 147.172 480.346C146.99 480.079 146.863 479.721 146.791 479.271C146.732 478.952 146.703 478.308 146.703 477.338V472.816H145.443V470.629H146.703V468.568L149.457 466.967V470.629H151.332ZM153.236 481V466.684H155.98V481H153.236ZM164.809 477.699L167.543 478.158C167.191 479.161 166.635 479.926 165.873 480.453C165.118 480.974 164.171 481.234 163.031 481.234C161.228 481.234 159.893 480.645 159.027 479.467C158.344 478.523 158.002 477.331 158.002 475.893C158.002 474.174 158.451 472.829 159.35 471.859C160.248 470.883 161.384 470.395 162.758 470.395C164.301 470.395 165.518 470.906 166.41 471.928C167.302 472.943 167.729 474.503 167.689 476.605H160.814C160.834 477.419 161.055 478.054 161.479 478.51C161.902 478.959 162.429 479.184 163.061 479.184C163.49 479.184 163.852 479.066 164.145 478.832C164.438 478.598 164.659 478.22 164.809 477.699ZM164.965 474.926C164.945 474.132 164.74 473.529 164.35 473.119C163.959 472.702 163.484 472.494 162.924 472.494C162.325 472.494 161.83 472.712 161.439 473.148C161.049 473.585 160.857 474.177 160.863 474.926H164.965Z"
         fill="#7C6576"
         class="svgc_invert"
         filter="url(#filter_readability_theme_treehouse)"
         id="path131" />
      <path
         d="M489 530H415V532H489V530Z"
         fill="#7C6576"
         fill-opacity="0.4"
         class="svgc_invert"
         filter="url(#filter_readability_theme_treehouse)"
         id="path133" />
      <path
         d="M452 515H415V525H452V515Z"
         fill="#7C6576"
         class="svgc_invert"
         filter="url(#filter_readability_theme_treehouse)"
         id="path135" />
      <path
         d="M606 530H532V532H606V530Z"
         fill="#7C6576"
         fill-opacity="0.4"
         class="svgc_invert"
         filter="url(#filter_readability_theme_treehouse)"
         id="path137" />
      <path
         d="M569 515H532V525H569V515Z"
         fill="#7C6576"
         class="svgc_invert"
         filter="url(#filter_readability_theme_treehouse)"
         id="path139" />
      <path
         d="M489 478H415V480H489V478Z"
         fill="#7C6576"
         fill-opacity="0.4"
         class="svgc_invert"
         filter="url(#filter_readability_theme_treehouse)"
         id="path141" />
      <path
         d="M452 463H415V473H452V463Z"
         fill="#7C6576"
         class="svgc_invert"
         filter="url(#filter_readability_theme_treehouse)"
         id="path143" />
      <path
         d="M606 478H532V480H606V478Z"
         fill="#7C6576"
         fill-opacity="0.4"
         class="svgc_invert"
         filter="url(#filter_readability_theme_treehouse)"
         id="path145" />
      <path
         d="M569 463H532V473H569V463Z"
         fill="#7C6576"
         class="svgc_invert"
         filter="url(#filter_readability_theme_treehouse)"
         id="path147" />
      <path
         d="M489 582H415V584H489V582Z"
         fill="#7C6576"
         fill-opacity="0.4"
         class="svgc_invert"
         filter="url(#filter_readability_theme_treehouse)"
         id="path149" />
      <path
         d="M452 567H415V577H452V567Z"
         fill="#7C6576"
         class="svgc_invert"
         filter="url(#filter_readability_theme_treehouse)"
         id="path151" />
      <path
         d="M606 582H532V584H606V582Z"
         fill="#7C6576"
         fill-opacity="0.4"
         class="svgc_invert"
         filter="url(#filter_readability_theme_treehouse)"
         id="path153" />
      <path
         d="M569 567H532V577H569V567Z"
         fill="#7C6576"
         class="svgc_invert"
         filter="url(#filter_readability_theme_treehouse)"
         id="path155" />
    </g>
    <g
       class="s_color_blocks_2"
       id="g177">
      <path
         d="M350 640H0V950H350V640Z"
         fill="#3AADAA"
         id="path159" />
      <path
         d="M700 640H350V950H700V640Z"
         fill="url(#theme_treehouse_s_text_image_default_image_id)"
         class="img_reference_s_text_image_default_image"
         id="path161" />
      <path
         d="M151 816H85C77.268 816 71 822.268 71 830C71 837.732 77.268 844 85 844H151C158.732 844 165 837.732 165 830C165 822.268 158.732 816 151 816Z"
         fill="#383E45"
         id="path163" />
      <path
         d="M95.324 825.507H98.2297C98.885 825.507 99.3845 825.557 99.7283 825.657C100.19 825.793 100.586 826.035 100.915 826.382C101.245 826.73 101.495 827.156 101.667 827.661C101.839 828.162 101.925 828.782 101.925 829.519C101.925 830.167 101.844 830.726 101.683 831.195C101.486 831.768 101.205 832.232 100.84 832.586C100.564 832.855 100.192 833.064 99.7229 833.214C99.372 833.325 98.9029 833.381 98.3157 833.381H95.324V825.507ZM96.9138 826.839V832.054H98.1008C98.5448 832.054 98.8653 832.029 99.0623 831.979C99.3201 831.915 99.5331 831.805 99.7014 831.651C99.8733 831.498 100.013 831.245 100.12 830.894C100.228 830.54 100.281 830.058 100.281 829.449C100.281 828.841 100.228 828.373 100.12 828.047C100.013 827.722 99.8625 827.467 99.6692 827.285C99.4758 827.102 99.2306 826.979 98.9333 826.914C98.7113 826.864 98.2763 826.839 97.6282 826.839H96.9138ZM103.268 826.903V825.507H104.777V826.903H103.268ZM103.268 833.381V827.677H104.777V833.381H103.268ZM105.798 831.754L107.312 831.523C107.377 831.816 107.507 832.04 107.704 832.194C107.901 832.344 108.177 832.42 108.531 832.42C108.922 832.42 109.215 832.348 109.412 832.205C109.545 832.104 109.611 831.97 109.611 831.802C109.611 831.687 109.575 831.592 109.504 831.517C109.428 831.446 109.26 831.379 108.999 831.318C107.781 831.05 107.01 830.805 106.684 830.583C106.233 830.275 106.007 829.847 106.007 829.299C106.007 828.805 106.202 828.389 106.593 828.053C106.983 827.716 107.588 827.548 108.408 827.548C109.189 827.548 109.769 827.675 110.148 827.929C110.528 828.184 110.789 828.56 110.932 829.057L109.509 829.32C109.448 829.098 109.332 828.928 109.16 828.81C108.992 828.692 108.75 828.633 108.435 828.633C108.037 828.633 107.753 828.688 107.581 828.799C107.466 828.878 107.409 828.98 107.409 829.106C107.409 829.213 107.459 829.304 107.559 829.38C107.695 829.48 108.164 829.621 108.967 829.804C109.772 829.986 110.334 830.21 110.653 830.475C110.968 830.744 111.126 831.118 111.126 831.598C111.126 832.121 110.907 832.57 110.47 832.946C110.034 833.322 109.387 833.51 108.531 833.51C107.754 833.51 107.139 833.352 106.684 833.037C106.233 832.722 105.937 832.294 105.798 831.754ZM117.426 829.363L115.938 829.632C115.888 829.335 115.774 829.111 115.594 828.961C115.419 828.81 115.19 828.735 114.907 828.735C114.531 828.735 114.23 828.866 114.005 829.127C113.783 829.385 113.672 829.818 113.672 830.427C113.672 831.104 113.784 831.582 114.01 831.861C114.239 832.14 114.545 832.28 114.928 832.28C115.215 832.28 115.449 832.199 115.632 832.038C115.815 831.873 115.944 831.592 116.019 831.195L117.501 831.447C117.347 832.128 117.052 832.642 116.615 832.989C116.178 833.336 115.593 833.51 114.859 833.51C114.024 833.51 113.358 833.247 112.861 832.72C112.366 832.194 112.119 831.465 112.119 830.534C112.119 829.593 112.368 828.86 112.866 828.338C113.364 827.811 114.037 827.548 114.885 827.548C115.58 827.548 116.132 827.698 116.54 827.999C116.952 828.296 117.247 828.751 117.426 829.363ZM118.226 830.448C118.226 829.947 118.35 829.462 118.597 828.993C118.844 828.524 119.193 828.166 119.644 827.919C120.099 827.672 120.606 827.548 121.164 827.548C122.027 827.548 122.734 827.829 123.286 828.391C123.837 828.95 124.113 829.657 124.113 830.513C124.113 831.376 123.834 832.092 123.275 832.661C122.72 833.227 122.02 833.51 121.175 833.51C120.652 833.51 120.153 833.392 119.677 833.155C119.204 832.919 118.844 832.574 118.597 832.119C118.35 831.66 118.226 831.104 118.226 830.448ZM119.773 830.529C119.773 831.095 119.907 831.528 120.176 831.829C120.445 832.13 120.776 832.28 121.17 832.28C121.564 832.28 121.893 832.13 122.158 831.829C122.427 831.528 122.561 831.091 122.561 830.518C122.561 829.96 122.427 829.53 122.158 829.229C121.893 828.928 121.564 828.778 121.17 828.778C120.776 828.778 120.445 828.928 120.176 829.229C119.907 829.53 119.773 829.963 119.773 830.529ZM126.868 833.381L124.57 827.677H126.154L127.228 830.588L127.54 831.56C127.622 831.313 127.674 831.15 127.696 831.071C127.746 830.91 127.799 830.749 127.857 830.588L128.942 827.677H130.494L128.227 833.381H126.868ZM134.726 831.566L136.23 831.818C136.037 832.369 135.731 832.79 135.312 833.08C134.896 833.367 134.375 833.51 133.749 833.51C132.757 833.51 132.023 833.186 131.547 832.538C131.171 832.019 130.983 831.363 130.983 830.572C130.983 829.627 131.23 828.887 131.724 828.354C132.218 827.817 132.843 827.548 133.598 827.548C134.447 827.548 135.117 827.829 135.607 828.391C136.098 828.95 136.332 829.807 136.311 830.964H132.53C132.54 831.412 132.662 831.761 132.895 832.011C133.128 832.258 133.418 832.382 133.765 832.382C134.001 832.382 134.2 832.318 134.361 832.189C134.522 832.06 134.644 831.852 134.726 831.566ZM134.812 830.04C134.802 829.603 134.689 829.272 134.474 829.047C134.259 828.817 133.998 828.703 133.69 828.703C133.36 828.703 133.088 828.823 132.873 829.063C132.658 829.303 132.553 829.628 132.556 830.04H134.812ZM138.991 833.381H137.482V827.677H138.884V828.488C139.123 828.105 139.338 827.852 139.528 827.731C139.721 827.609 139.94 827.548 140.183 827.548C140.527 827.548 140.858 827.643 141.177 827.833L140.71 829.149C140.455 828.984 140.219 828.901 140.001 828.901C139.789 828.901 139.61 828.961 139.464 829.079C139.317 829.193 139.2 829.403 139.115 829.707C139.032 830.012 138.991 830.649 138.991 831.619V833.381Z"
         fill="#383E45"
         class="svgc_invert"
         filter="url(#filter_readability_theme_treehouse)"
         id="path165" />
      <path
         d="M265 781H71V783H265V781Z"
         fill="#3AADAA"
         fill-opacity="0.4"
         class="svgc_invert"
         filter="url(#filter_readability_theme_treehouse)"
         id="path167" />
      <path
         d="M251 786H71V788H251V786Z"
         fill="#3AADAA"
         fill-opacity="0.4"
         class="svgc_invert"
         filter="url(#filter_readability_theme_treehouse)"
         id="path169" />
      <path
         d="M201 791H71V793H201V791Z"
         fill="#3AADAA"
         fill-opacity="0.4"
         class="svgc_invert"
         filter="url(#filter_readability_theme_treehouse)"
         id="path171" />
      <path
         d="M224 796H71V798H224V796Z"
         fill="#3AADAA"
         fill-opacity="0.4"
         class="svgc_invert"
         filter="url(#filter_readability_theme_treehouse)"
         id="path173" />
      <path
         d="M72.4551 763V748.684H83.0703V751.105H75.3457V754.279H82.5332V756.691H75.3457V760.588H83.3438V763H72.4551ZM95.209 763H92.4648V757.707C92.4648 756.587 92.4062 755.865 92.2891 755.539C92.1719 755.207 91.9798 754.95 91.7129 754.768C91.4525 754.585 91.1367 754.494 90.7656 754.494C90.2904 754.494 89.8639 754.624 89.4863 754.885C89.1087 755.145 88.8483 755.49 88.7051 755.92C88.5684 756.35 88.5 757.144 88.5 758.303V763H85.7559V752.629H88.3047V754.152C89.2096 752.98 90.349 752.395 91.7227 752.395C92.3281 752.395 92.8815 752.505 93.3828 752.727C93.8841 752.941 94.2617 753.218 94.5156 753.557C94.776 753.895 94.9551 754.279 95.0527 754.709C95.1569 755.139 95.209 755.754 95.209 756.555V763ZM102.758 752.629V754.816H100.883V758.996C100.883 759.842 100.899 760.337 100.932 760.48C100.971 760.617 101.052 760.731 101.176 760.822C101.306 760.913 101.462 760.959 101.645 760.959C101.898 760.959 102.266 760.871 102.748 760.695L102.982 762.824C102.344 763.098 101.622 763.234 100.814 763.234C100.32 763.234 99.8737 763.153 99.4766 762.99C99.0794 762.821 98.7865 762.606 98.5977 762.346C98.4154 762.079 98.2884 761.721 98.2168 761.271C98.1582 760.952 98.1289 760.308 98.1289 759.338V754.816H96.8691V752.629H98.1289V750.568L100.883 748.967V752.629H102.758ZM107.289 763H104.545V752.629H107.094V754.104C107.53 753.407 107.921 752.948 108.266 752.727C108.617 752.505 109.014 752.395 109.457 752.395C110.082 752.395 110.684 752.567 111.264 752.912L110.414 755.305C109.952 755.005 109.522 754.855 109.125 754.855C108.741 754.855 108.415 754.963 108.148 755.178C107.882 755.386 107.67 755.767 107.514 756.32C107.364 756.874 107.289 758.033 107.289 759.797V763ZM111.156 752.629H114.076L116.557 759.992L118.979 752.629H121.82L118.158 762.609L117.504 764.416C117.263 765.021 117.032 765.484 116.811 765.803C116.596 766.122 116.345 766.379 116.059 766.574C115.779 766.776 115.43 766.932 115.014 767.043C114.604 767.154 114.138 767.209 113.617 767.209C113.09 767.209 112.572 767.154 112.064 767.043L111.82 764.895C112.25 764.979 112.637 765.021 112.982 765.021C113.62 765.021 114.092 764.833 114.398 764.455C114.704 764.084 114.939 763.609 115.102 763.029L111.156 752.629ZM132.396 763V751.105H128.148V748.684H139.525V751.105H135.287V763H132.396ZM141.01 751.223V748.684H143.754V751.223H141.01ZM141.01 763V752.629H143.754V763H141.01ZM151.332 752.629V754.816H149.457V758.996C149.457 759.842 149.473 760.337 149.506 760.48C149.545 760.617 149.626 760.731 149.75 760.822C149.88 760.913 150.036 760.959 150.219 760.959C150.473 760.959 150.84 760.871 151.322 760.695L151.557 762.824C150.919 763.098 150.196 763.234 149.389 763.234C148.894 763.234 148.448 763.153 148.051 762.99C147.654 762.821 147.361 762.606 147.172 762.346C146.99 762.079 146.863 761.721 146.791 761.271C146.732 760.952 146.703 760.308 146.703 759.338V754.816H145.443V752.629H146.703V750.568L149.457 748.967V752.629H151.332ZM153.236 763V748.684H155.98V763H153.236ZM164.809 759.699L167.543 760.158C167.191 761.161 166.635 761.926 165.873 762.453C165.118 762.974 164.171 763.234 163.031 763.234C161.228 763.234 159.893 762.645 159.027 761.467C158.344 760.523 158.002 759.331 158.002 757.893C158.002 756.174 158.451 754.829 159.35 753.859C160.248 752.883 161.384 752.395 162.758 752.395C164.301 752.395 165.518 752.906 166.41 753.928C167.302 754.943 167.729 756.503 167.689 758.605H160.814C160.834 759.419 161.055 760.054 161.479 760.51C161.902 760.959 162.429 761.184 163.061 761.184C163.49 761.184 163.852 761.066 164.145 760.832C164.438 760.598 164.659 760.22 164.809 759.699ZM164.965 756.926C164.945 756.132 164.74 755.529 164.35 755.119C163.959 754.702 163.484 754.494 162.924 754.494C162.325 754.494 161.83 754.712 161.439 755.148C161.049 755.585 160.857 756.177 160.863 756.926H164.965Z"
         fill="#3AADAA"
         class="svgc_invert"
         filter="url(#filter_readability_theme_treehouse)"
         id="path175" />
    </g>
    <g
       class="s_references"
       id="g199">
      <rect
         y="950"
         width="700"
         height="213"
         fill="#FFFFFF"
         id="rect179" />
      <path
         d="M112 1131C135.196 1131 154 1112.2 154 1089C154 1065.8 135.196 1047 112 1047C88.804 1047 70 1065.8 70 1089C70 1112.2 88.804 1131 112 1131Z"
         fill="url(#theme_treehouse_s_reference_demo_image_1_id)"
         class="img_reference_s_reference_demo_image_1"
         id="path181" />
      <path
         d="M207 1131C230.196 1131 249 1112.2 249 1089C249 1065.8 230.196 1047 207 1047C183.804 1047 165 1065.8 165 1089C165 1112.2 183.804 1131 207 1131Z"
         fill="url(#theme_treehouse_s_reference_demo_image_2_id)"
         class="img_reference_s_reference_demo_image_2"
         id="path183" />
      <path
         d="M302.4 1131C325.596 1131 344.4 1112.2 344.4 1089C344.4 1065.8 325.596 1047 302.4 1047C279.204 1047 260.4 1065.8 260.4 1089C260.4 1112.2 279.204 1131 302.4 1131Z"
         fill="url(#theme_treehouse_s_reference_demo_image_3_id)"
         class="img_reference_s_reference_demo_image_3"
         id="path185" />
      <path
         d="M397.6 1131C420.796 1131 439.6 1112.2 439.6 1089C439.6 1065.8 420.796 1047 397.6 1047C374.404 1047 355.6 1065.8 355.6 1089C355.6 1112.2 374.404 1131 397.6 1131Z"
         fill="url(#theme_treehouse_s_reference_demo_image_4_id)"
         class="img_reference_s_reference_demo_image_4"
         id="path187" />
      <path
         d="M492.8 1131C515.996 1131 534.8 1112.2 534.8 1089C534.8 1065.8 515.996 1047 492.8 1047C469.604 1047 450.8 1065.8 450.8 1089C450.8 1112.2 469.604 1131 492.8 1131Z"
         fill="url(#theme_treehouse_s_reference_demo_image_5_id)"
         class="img_reference_s_reference_demo_image_5"
         id="path189" />
      <path
         d="M588 1131C611.196 1131 630 1112.2 630 1089C630 1065.8 611.196 1047 588 1047C564.804 1047 546 1065.8 546 1089C546 1112.2 564.804 1131 588 1131Z"
         fill="url(#theme_treehouse_s_reference_demo_image_1_id)"
         class="img_reference_s_reference_demo_image_6"
         id="path191" />
      <path
         d="M384 1019.52H290.559V1021.52H384V1019.52Z"
         fill="#FFFFFF"
         fill-opacity="0.4"
         class="svgc_invert"
         filter="url(#filter_readability_theme_treehouse)"
         id="path193" />
      <path
         d="M378.435 1024.52H296.559V1026.52H378.435V1024.52Z"
         fill="#FFFFFF"
         fill-opacity="0.4"
         class="svgc_invert"
         filter="url(#filter_readability_theme_treehouse)"
         id="path195" />
      <path
         d="M272.396 996.876L275.49 996.575C275.676 997.614 276.052 998.376 276.618 998.863C277.191 999.35 277.96 999.594 278.927 999.594C279.951 999.594 280.721 999.379 281.237 998.949C281.76 998.512 282.021 998.004 282.021 997.424C282.021 997.051 281.91 996.736 281.688 996.479C281.473 996.214 281.094 995.984 280.549 995.791C280.177 995.662 279.328 995.433 278.003 995.104C276.299 994.681 275.103 994.162 274.416 993.546C273.449 992.679 272.965 991.623 272.965 990.377C272.965 989.575 273.191 988.826 273.642 988.132C274.1 987.43 274.756 986.896 275.608 986.531C276.467 986.166 277.502 985.983 278.712 985.983C280.689 985.983 282.175 986.417 283.17 987.283C284.173 988.15 284.699 989.306 284.75 990.753L281.57 990.893C281.434 990.083 281.14 989.503 280.689 989.152C280.245 988.794 279.575 988.615 278.68 988.615C277.756 988.615 277.033 988.805 276.51 989.185C276.174 989.428 276.005 989.754 276.005 990.162C276.005 990.535 276.163 990.853 276.478 991.118C276.879 991.455 277.853 991.806 279.4 992.171C280.947 992.536 282.089 992.916 282.827 993.31C283.571 993.696 284.152 994.23 284.567 994.91C284.989 995.583 285.201 996.418 285.201 997.413C285.201 998.315 284.95 999.16 284.449 999.948C283.947 1000.74 283.238 1001.32 282.322 1001.71C281.405 1002.09 280.263 1002.28 278.895 1002.28C276.904 1002.28 275.375 1001.82 274.308 1000.9C273.241 999.98 272.604 998.638 272.396 996.876ZM294.46 998.369L297.468 998.874C297.082 999.977 296.469 1000.82 295.631 1001.4C294.801 1001.97 293.759 1002.26 292.505 1002.26C290.522 1002.26 289.054 1001.61 288.101 1000.31C287.349 999.275 286.973 997.965 286.973 996.382C286.973 994.491 287.467 993.012 288.456 991.945C289.444 990.871 290.694 990.334 292.205 990.334C293.902 990.334 295.241 990.896 296.222 992.021C297.203 993.138 297.672 994.853 297.629 997.166H290.067C290.088 998.061 290.332 998.759 290.797 999.261C291.263 999.755 291.843 1000 292.538 1000C293.01 1000 293.408 999.873 293.73 999.615C294.052 999.357 294.296 998.942 294.46 998.369ZM294.632 995.318C294.611 994.445 294.385 993.782 293.956 993.331C293.526 992.873 293.003 992.644 292.387 992.644C291.728 992.644 291.184 992.883 290.754 993.363C290.325 993.843 290.113 994.495 290.121 995.318H294.632ZM310.047 993.965L307.072 994.502C306.972 993.908 306.742 993.46 306.384 993.159C306.033 992.858 305.575 992.708 305.009 992.708C304.257 992.708 303.656 992.969 303.205 993.492C302.761 994.008 302.539 994.874 302.539 996.092C302.539 997.445 302.764 998.401 303.215 998.96C303.674 999.519 304.286 999.798 305.052 999.798C305.625 999.798 306.094 999.637 306.459 999.314C306.825 998.985 307.083 998.423 307.233 997.628L310.198 998.133C309.89 999.493 309.299 1000.52 308.425 1001.22C307.552 1001.91 306.381 1002.26 304.913 1002.26C303.244 1002.26 301.912 1001.73 300.917 1000.68C299.928 999.626 299.434 998.169 299.434 996.307C299.434 994.423 299.932 992.959 300.927 991.913C301.923 990.86 303.269 990.334 304.966 990.334C306.356 990.334 307.458 990.635 308.275 991.236C309.098 991.831 309.689 992.74 310.047 993.965ZM317.578 990.592V992.998H315.515V997.596C315.515 998.527 315.533 999.071 315.569 999.229C315.612 999.379 315.701 999.504 315.837 999.604C315.981 999.705 316.153 999.755 316.353 999.755C316.632 999.755 317.037 999.658 317.567 999.465L317.825 1001.81C317.123 1002.11 316.328 1002.26 315.44 1002.26C314.896 1002.26 314.405 1002.17 313.968 1001.99C313.531 1001.8 313.209 1001.57 313.001 1001.28C312.801 1000.99 312.661 1000.59 312.583 1000.1C312.518 999.748 312.486 999.039 312.486 997.972V992.998H311.1V990.592H312.486V988.325L315.515 986.563V990.592H317.578ZM319.672 989.045V986.252H322.691V989.045H319.672ZM319.672 1002V990.592H322.691V1002H319.672ZM325.097 996.135C325.097 995.132 325.344 994.162 325.838 993.224C326.333 992.285 327.031 991.569 327.933 991.075C328.843 990.581 329.856 990.334 330.973 990.334C332.699 990.334 334.113 990.896 335.216 992.021C336.319 993.138 336.871 994.552 336.871 996.264C336.871 997.99 336.312 999.422 335.195 1000.56C334.085 1001.69 332.685 1002.26 330.995 1002.26C329.949 1002.26 328.95 1002.02 327.998 1001.55C327.052 1001.08 326.333 1000.39 325.838 999.476C325.344 998.559 325.097 997.445 325.097 996.135ZM328.191 996.296C328.191 997.427 328.459 998.294 328.997 998.896C329.534 999.497 330.196 999.798 330.984 999.798C331.772 999.798 332.431 999.497 332.96 998.896C333.498 998.294 333.766 997.42 333.766 996.274C333.766 995.157 333.498 994.298 332.96 993.696C332.431 993.095 331.772 992.794 330.984 992.794C330.196 992.794 329.534 993.095 328.997 993.696C328.459 994.298 328.191 995.164 328.191 996.296ZM349.622 1002H346.603V996.178C346.603 994.946 346.539 994.151 346.41 993.793C346.281 993.428 346.069 993.145 345.776 992.944C345.489 992.744 345.142 992.644 344.734 992.644C344.211 992.644 343.742 992.787 343.327 993.073C342.911 993.36 342.625 993.739 342.467 994.212C342.317 994.685 342.242 995.558 342.242 996.833V1002H339.223V990.592H342.027V992.268C343.022 990.979 344.276 990.334 345.787 990.334C346.453 990.334 347.061 990.456 347.613 990.699C348.164 990.936 348.58 991.24 348.859 991.612C349.145 991.985 349.342 992.407 349.45 992.88C349.564 993.353 349.622 994.029 349.622 994.91V1002ZM362.383 1002V988.916H357.71V986.252H370.225V988.916H365.563V1002H362.383ZM371.858 989.045V986.252H374.876V989.045H371.858ZM371.858 1002V990.592H374.876V1002H371.858ZM383.212 990.592V992.998H381.15V997.596C381.15 998.527 381.168 999.071 381.204 999.229C381.247 999.379 381.336 999.504 381.472 999.604C381.615 999.705 381.787 999.755 381.988 999.755C382.267 999.755 382.672 999.658 383.202 999.465L383.459 1001.81C382.758 1002.11 381.963 1002.26 381.075 1002.26C380.53 1002.26 380.04 1002.17 379.603 1001.99C379.166 1001.8 378.844 1001.57 378.636 1001.28C378.436 1000.99 378.296 1000.59 378.217 1000.1C378.153 999.748 378.121 999.039 378.121 997.972V992.998H376.735V990.592H378.121V988.325L381.15 986.563V990.592H383.212ZM385.307 1002V986.252H388.326V1002H385.307ZM398.037 998.369L401.044 998.874C400.658 999.977 400.045 1000.82 399.208 1001.4C398.377 1001.97 397.335 1002.26 396.082 1002.26C394.098 1002.26 392.63 1001.61 391.677 1000.31C390.925 999.275 390.549 997.965 390.549 996.382C390.549 994.491 391.043 993.012 392.032 991.945C393.02 990.871 394.27 990.334 395.781 990.334C397.478 990.334 398.817 990.896 399.798 992.021C400.779 993.138 401.249 994.853 401.206 997.166H393.643C393.665 998.061 393.908 998.759 394.374 999.261C394.839 999.755 395.419 1000 396.114 1000C396.586 1000 396.984 999.873 397.306 999.615C397.628 999.357 397.872 998.942 398.037 998.369ZM398.208 995.318C398.187 994.445 397.961 993.782 397.532 993.331C397.102 992.873 396.579 992.644 395.963 992.644C395.305 992.644 394.76 992.883 394.331 993.363C393.901 993.843 393.69 994.495 393.697 995.318H398.208Z"
         fill="#FFFFFF"
         class="svgc_invert"
         filter="url(#filter_readability_theme_treehouse)"
         id="path197" />
    </g>
    <g
       class="s_freegrid"
       id="g227">
      <rect
         y="1163"
         width="700"
         height="378"
         fill="#FFFFFF"
         id="rect201" />
      <path
         d="M700 1219H601V1393H700V1219Z"
         fill="url(#theme_treehouse_library_image_16_id)"
         class="img_reference_library_image_16"
         id="path203" />
      <path
         d="M70 1219H0V1393H70V1219Z"
         fill="url(#theme_treehouse_library_image_03_id_2)"
         class="img_reference_library_image_03"
         id="path205" />
      <path
         d="M593 1198H450V1414H593V1198Z"
         fill="url(#theme_treehouse_library_image_14_id)"
         class="img_reference_library_image_14"
         id="path207" />
      <path
         d="M442 1219H267V1393H442V1219Z"
         fill="url(#theme_treehouse_library_image_05_id_2)"
         class="img_reference_library_image_05"
         id="path209" />
      <path
         d="M259 1198H78V1308H259V1198Z"
         fill="url(#theme_treehouse_library_image_13_id_2)"
         class="img_reference_library_image_13"
         id="path211" />
      <path
         d="M259 1316H78V1414H259V1316Z"
         fill="url(#theme_treehouse_library_image_10_id_2)"
         class="img_reference_library_image_10"
         id="path213" />
      <path
         d="M616 1460H550C542.268 1460 536 1466.27 536 1474C536 1481.73 542.268 1488 550 1488H616C623.732 1488 630 1481.73 630 1474C630 1466.27 623.732 1460 616 1460Z"
         fill="#3AADAA"
         id="path215" />
      <path
         d="M560.324 1469.51H563.23C563.885 1469.51 564.385 1469.56 564.728 1469.66C565.19 1469.79 565.586 1470.04 565.915 1470.38C566.245 1470.73 566.495 1471.16 566.667 1471.66C566.839 1472.16 566.925 1472.78 566.925 1473.52C566.925 1474.17 566.844 1474.73 566.683 1475.19C566.486 1475.77 566.205 1476.23 565.84 1476.59C565.564 1476.85 565.192 1477.06 564.723 1477.21C564.372 1477.33 563.903 1477.38 563.316 1477.38H560.324V1469.51ZM561.914 1470.84V1476.05H563.101C563.545 1476.05 563.865 1476.03 564.062 1475.98C564.32 1475.91 564.533 1475.81 564.701 1475.65C564.873 1475.5 565.013 1475.25 565.12 1474.89C565.228 1474.54 565.281 1474.06 565.281 1473.45C565.281 1472.84 565.228 1472.37 565.12 1472.05C565.013 1471.72 564.863 1471.47 564.669 1471.28C564.476 1471.1 564.231 1470.98 563.933 1470.91C563.711 1470.86 563.276 1470.84 562.628 1470.84H561.914ZM568.268 1470.9V1469.51H569.777V1470.9H568.268ZM568.268 1477.38V1471.68H569.777V1477.38H568.268ZM570.798 1475.75L572.312 1475.52C572.377 1475.82 572.507 1476.04 572.704 1476.19C572.901 1476.34 573.177 1476.42 573.531 1476.42C573.922 1476.42 574.215 1476.35 574.412 1476.2C574.545 1476.1 574.611 1475.97 574.611 1475.8C574.611 1475.69 574.575 1475.59 574.504 1475.52C574.428 1475.45 574.26 1475.38 573.999 1475.32C572.781 1475.05 572.01 1474.8 571.684 1474.58C571.233 1474.27 571.007 1473.85 571.007 1473.3C571.007 1472.8 571.202 1472.39 571.593 1472.05C571.983 1471.72 572.588 1471.55 573.408 1471.55C574.189 1471.55 574.769 1471.68 575.148 1471.93C575.528 1472.18 575.789 1472.56 575.932 1473.06L574.509 1473.32C574.448 1473.1 574.332 1472.93 574.16 1472.81C573.992 1472.69 573.75 1472.63 573.435 1472.63C573.037 1472.63 572.753 1472.69 572.581 1472.8C572.466 1472.88 572.409 1472.98 572.409 1473.11C572.409 1473.21 572.459 1473.3 572.559 1473.38C572.695 1473.48 573.164 1473.62 573.967 1473.8C574.772 1473.99 575.334 1474.21 575.653 1474.48C575.968 1474.74 576.126 1475.12 576.126 1475.6C576.126 1476.12 575.907 1476.57 575.47 1476.95C575.034 1477.32 574.387 1477.51 573.531 1477.51C572.754 1477.51 572.139 1477.35 571.684 1477.04C571.233 1476.72 570.937 1476.29 570.798 1475.75ZM582.426 1473.36L580.938 1473.63C580.888 1473.33 580.774 1473.11 580.594 1472.96C580.419 1472.81 580.19 1472.73 579.907 1472.73C579.531 1472.73 579.23 1472.87 579.005 1473.13C578.783 1473.38 578.672 1473.82 578.672 1474.43C578.672 1475.1 578.784 1475.58 579.01 1475.86C579.239 1476.14 579.545 1476.28 579.928 1476.28C580.215 1476.28 580.449 1476.2 580.632 1476.04C580.815 1475.87 580.944 1475.59 581.019 1475.19L582.501 1475.45C582.347 1476.13 582.052 1476.64 581.615 1476.99C581.178 1477.34 580.593 1477.51 579.859 1477.51C579.024 1477.51 578.358 1477.25 577.861 1476.72C577.366 1476.19 577.119 1475.47 577.119 1474.53C577.119 1473.59 577.368 1472.86 577.866 1472.34C578.364 1471.81 579.037 1471.55 579.885 1471.55C580.58 1471.55 581.132 1471.7 581.54 1472C581.952 1472.3 582.247 1472.75 582.426 1473.36ZM583.226 1474.45C583.226 1473.95 583.35 1473.46 583.597 1472.99C583.844 1472.52 584.193 1472.17 584.644 1471.92C585.099 1471.67 585.606 1471.55 586.164 1471.55C587.027 1471.55 587.734 1471.83 588.286 1472.39C588.837 1472.95 589.113 1473.66 589.113 1474.51C589.113 1475.38 588.834 1476.09 588.275 1476.66C587.72 1477.23 587.02 1477.51 586.175 1477.51C585.652 1477.51 585.153 1477.39 584.677 1477.16C584.204 1476.92 583.844 1476.57 583.597 1476.12C583.35 1475.66 583.226 1475.1 583.226 1474.45ZM584.773 1474.53C584.773 1475.09 584.907 1475.53 585.176 1475.83C585.445 1476.13 585.776 1476.28 586.17 1476.28C586.564 1476.28 586.893 1476.13 587.158 1475.83C587.427 1475.53 587.561 1475.09 587.561 1474.52C587.561 1473.96 587.427 1473.53 587.158 1473.23C586.893 1472.93 586.564 1472.78 586.17 1472.78C585.776 1472.78 585.445 1472.93 585.176 1473.23C584.907 1473.53 584.773 1473.96 584.773 1474.53ZM591.868 1477.38L589.57 1471.68H591.154L592.228 1474.59L592.54 1475.56C592.622 1475.31 592.674 1475.15 592.696 1475.07C592.746 1474.91 592.799 1474.75 592.857 1474.59L593.942 1471.68H595.494L593.227 1477.38H591.868ZM599.726 1475.57L601.23 1475.82C601.037 1476.37 600.731 1476.79 600.312 1477.08C599.896 1477.37 599.375 1477.51 598.749 1477.51C597.757 1477.51 597.023 1477.19 596.547 1476.54C596.171 1476.02 595.983 1475.36 595.983 1474.57C595.983 1473.63 596.23 1472.89 596.724 1472.35C597.218 1471.82 597.843 1471.55 598.598 1471.55C599.447 1471.55 600.117 1471.83 600.607 1472.39C601.098 1472.95 601.332 1473.81 601.311 1474.96H597.53C597.54 1475.41 597.662 1475.76 597.895 1476.01C598.128 1476.26 598.418 1476.38 598.765 1476.38C599.001 1476.38 599.2 1476.32 599.361 1476.19C599.522 1476.06 599.644 1475.85 599.726 1475.57ZM599.812 1474.04C599.802 1473.6 599.689 1473.27 599.474 1473.05C599.259 1472.82 598.998 1472.7 598.69 1472.7C598.36 1472.7 598.088 1472.82 597.873 1473.06C597.658 1473.3 597.553 1473.63 597.556 1474.04H599.812ZM603.991 1477.38H602.482V1471.68H603.884V1472.49C604.123 1472.1 604.338 1471.85 604.528 1471.73C604.721 1471.61 604.94 1471.55 605.183 1471.55C605.527 1471.55 605.858 1471.64 606.177 1471.83L605.71 1473.15C605.455 1472.98 605.219 1472.9 605.001 1472.9C604.789 1472.9 604.61 1472.96 604.464 1473.08C604.317 1473.19 604.2 1473.4 604.115 1473.71C604.032 1474.01 603.991 1474.65 603.991 1475.62V1477.38Z"
         fill="#3AADAA"
         class="svgc_invert"
         filter="url(#filter_readability_theme_treehouse)"
         id="path217" />
      <path
         d="M398 1496H70V1498H398V1496Z"
         fill="#FFFFFF"
         fill-opacity="0.4"
         class="svgc_invert"
         filter="url(#filter_readability_theme_treehouse)"
         id="path219" />
      <path
         d="M374 1501H70V1503H374V1501Z"
         fill="#FFFFFF"
         fill-opacity="0.4"
         class="svgc_invert"
         filter="url(#filter_readability_theme_treehouse)"
         id="path221" />
      <path
         d="M290 1506H70V1508H290V1506Z"
         fill="#FFFFFF"
         fill-opacity="0.4"
         class="svgc_invert"
         filter="url(#filter_readability_theme_treehouse)"
         id="path223" />
      <path
         d="M71.4551 1478V1463.68H82.0703V1466.11H74.3457V1469.28H81.5332V1471.69H74.3457V1475.59H82.3438V1478H71.4551ZM94.209 1478H91.4648V1472.71C91.4648 1471.59 91.4062 1470.86 91.2891 1470.54C91.1719 1470.21 90.9798 1469.95 90.7129 1469.77C90.4525 1469.59 90.1367 1469.49 89.7656 1469.49C89.2904 1469.49 88.8639 1469.62 88.4863 1469.88C88.1087 1470.15 87.8483 1470.49 87.7051 1470.92C87.5684 1471.35 87.5 1472.14 87.5 1473.3V1478H84.7559V1467.63H87.3047V1469.15C88.2096 1467.98 89.349 1467.39 90.7227 1467.39C91.3281 1467.39 91.8815 1467.51 92.3828 1467.73C92.8841 1467.94 93.2617 1468.22 93.5156 1468.56C93.776 1468.9 93.9551 1469.28 94.0527 1469.71C94.1569 1470.14 94.209 1470.75 94.209 1471.55V1478ZM101.758 1467.63V1469.82H99.8828V1474C99.8828 1474.84 99.8991 1475.34 99.9316 1475.48C99.9707 1475.62 100.052 1475.73 100.176 1475.82C100.306 1475.91 100.462 1475.96 100.645 1475.96C100.898 1475.96 101.266 1475.87 101.748 1475.7L101.982 1477.82C101.344 1478.1 100.622 1478.23 99.8145 1478.23C99.3197 1478.23 98.8737 1478.15 98.4766 1477.99C98.0794 1477.82 97.7865 1477.61 97.5977 1477.35C97.4154 1477.08 97.2884 1476.72 97.2168 1476.27C97.1582 1475.95 97.1289 1475.31 97.1289 1474.34V1469.82H95.8691V1467.63H97.1289V1465.57L99.8828 1463.97V1467.63H101.758ZM106.289 1478H103.545V1467.63H106.094V1469.1C106.53 1468.41 106.921 1467.95 107.266 1467.73C107.617 1467.51 108.014 1467.39 108.457 1467.39C109.082 1467.39 109.684 1467.57 110.264 1467.91L109.414 1470.3C108.952 1470.01 108.522 1469.86 108.125 1469.86C107.741 1469.86 107.415 1469.96 107.148 1470.18C106.882 1470.39 106.67 1470.77 106.514 1471.32C106.364 1471.87 106.289 1473.03 106.289 1474.8V1478ZM110.156 1467.63H113.076L115.557 1474.99L117.979 1467.63H120.82L117.158 1477.61L116.504 1479.42C116.263 1480.02 116.032 1480.48 115.811 1480.8C115.596 1481.12 115.345 1481.38 115.059 1481.57C114.779 1481.78 114.43 1481.93 114.014 1482.04C113.604 1482.15 113.138 1482.21 112.617 1482.21C112.09 1482.21 111.572 1482.15 111.064 1482.04L110.82 1479.89C111.25 1479.98 111.637 1480.02 111.982 1480.02C112.62 1480.02 113.092 1479.83 113.398 1479.46C113.704 1479.08 113.939 1478.61 114.102 1478.03L110.156 1467.63ZM131.396 1478V1466.11H127.148V1463.68H138.525V1466.11H134.287V1478H131.396ZM140.01 1466.22V1463.68H142.754V1466.22H140.01ZM140.01 1478V1467.63H142.754V1478H140.01ZM150.332 1467.63V1469.82H148.457V1474C148.457 1474.84 148.473 1475.34 148.506 1475.48C148.545 1475.62 148.626 1475.73 148.75 1475.82C148.88 1475.91 149.036 1475.96 149.219 1475.96C149.473 1475.96 149.84 1475.87 150.322 1475.7L150.557 1477.82C149.919 1478.1 149.196 1478.23 148.389 1478.23C147.894 1478.23 147.448 1478.15 147.051 1477.99C146.654 1477.82 146.361 1477.61 146.172 1477.35C145.99 1477.08 145.863 1476.72 145.791 1476.27C145.732 1475.95 145.703 1475.31 145.703 1474.34V1469.82H144.443V1467.63H145.703V1465.57L148.457 1463.97V1467.63H150.332ZM152.236 1478V1463.68H154.98V1478H152.236ZM163.809 1474.7L166.543 1475.16C166.191 1476.16 165.635 1476.93 164.873 1477.45C164.118 1477.97 163.171 1478.23 162.031 1478.23C160.228 1478.23 158.893 1477.65 158.027 1476.47C157.344 1475.52 157.002 1474.33 157.002 1472.89C157.002 1471.17 157.451 1469.83 158.35 1468.86C159.248 1467.88 160.384 1467.39 161.758 1467.39C163.301 1467.39 164.518 1467.91 165.41 1468.93C166.302 1469.94 166.729 1471.5 166.689 1473.61H159.814C159.834 1474.42 160.055 1475.05 160.479 1475.51C160.902 1475.96 161.429 1476.18 162.061 1476.18C162.49 1476.18 162.852 1476.07 163.145 1475.83C163.438 1475.6 163.659 1475.22 163.809 1474.7ZM163.965 1471.93C163.945 1471.13 163.74 1470.53 163.35 1470.12C162.959 1469.7 162.484 1469.49 161.924 1469.49C161.325 1469.49 160.83 1469.71 160.439 1470.15C160.049 1470.58 159.857 1471.18 159.863 1471.93H163.965Z"
         fill="#FFFFFF"
         class="svgc_invert"
         filter="url(#filter_readability_theme_treehouse)"
         id="path225" />
    </g>
    <g
       class="svgc_footer"
       id="g263">
      <path
         d="M700 1541H0V1641H700V1541Z"
         fill="#FOOTER_COLOR"
         class="svgc_footer_bg"
         id="path229" />
      <path
         d="M630 1589H578V1591H630V1589Z"
         fill="#FOOTER_COLOR"
         class="svgc_invert"
         filter="url(#filter_readability_theme_treehouse)"
         id="path231" />
      <path
         d="M615 1583H578V1585H615V1583Z"
         fill="#FOOTER_COLOR"
         class="svgc_invert"
         filter="url(#filter_readability_theme_treehouse)"
         id="path233" />
      <path
         d="M234 1587H70V1589H234V1587Z"
         fill="#FOOTER_COLOR"
         fill-opacity="0.4"
         class="svgc_invert"
         filter="url(#filter_readability_theme_treehouse)"
         id="path235" />
      <path
         d="M234 1593H70V1595H234V1593Z"
         fill="#FOOTER_COLOR"
         fill-opacity="0.4"
         class="svgc_invert"
         filter="url(#filter_readability_theme_treehouse)"
         id="path237" />
      <path
         d="M234 1599H70V1601H234V1599Z"
         fill="#FOOTER_COLOR"
         fill-opacity="0.4"
         class="svgc_invert"
         filter="url(#filter_readability_theme_treehouse)"
         id="path239" />
      <path
         d="M234 1605H70V1607H234V1605Z"
         fill="#FOOTER_COLOR"
         fill-opacity="0.4"
         class="svgc_invert"
         filter="url(#filter_readability_theme_treehouse)"
         id="path241" />
      <path
         d="M234 1611H70V1613H234V1611Z"
         fill="#FOOTER_COLOR"
         fill-opacity="0.4"
         class="svgc_invert"
         filter="url(#filter_readability_theme_treehouse)"
         id="path243" />
      <path
         d="M327 1587H280V1589H327V1587Z"
         fill="#FOOTER_COLOR"
         fill-opacity="0.4"
         class="svgc_invert"
         filter="url(#filter_readability_theme_treehouse)"
         id="path245" />
      <path
         d="M375 1593H280V1595H375V1593Z"
         fill="#FOOTER_COLOR"
         fill-opacity="0.4"
         class="svgc_invert"
         filter="url(#filter_readability_theme_treehouse)"
         id="path247" />
      <path
         d="M388 1599H280V1601H388V1599Z"
         fill="#FOOTER_COLOR"
         fill-opacity="0.4"
         class="svgc_invert"
         filter="url(#filter_readability_theme_treehouse)"
         id="path249" />
      <path
         d="M415 1605H280V1607H415V1605Z"
         fill="#FOOTER_COLOR"
         fill-opacity="0.4"
         class="svgc_invert"
         filter="url(#filter_readability_theme_treehouse)"
         id="path251" />
      <path
         d="M388 1611H280V1613H388V1611Z"
         fill="#FOOTER_COLOR"
         fill-opacity="0.4"
         class="svgc_invert"
         filter="url(#filter_readability_theme_treehouse)"
         id="path253" />
      <path
         d="M623 1612C626.866 1612 630 1608.87 630 1605C630 1601.13 626.866 1598 623 1598C619.134 1598 616 1601.13 616 1605C616 1608.87 619.134 1612 623 1612Z"
         fill="#FOOTER_COLOR"
         class="svgc_invert"
         filter="url(#filter_readability_theme_treehouse)"
         id="path255" />
      <path
         d="M604 1612C607.866 1612 611 1608.87 611 1605C611 1601.13 607.866 1598 604 1598C600.134 1598 597 1601.13 597 1605C597 1608.87 600.134 1612 604 1612Z"
         fill="#FOOTER_COLOR"
         class="svgc_invert"
         filter="url(#filter_readability_theme_treehouse)"
         id="path257" />
      <path
         d="M585 1612C588.866 1612 592 1608.87 592 1605C592 1601.13 588.866 1598 585 1598C581.134 1598 578 1601.13 578 1605C578 1608.87 581.134 1612 585 1612Z"
         fill="#FOOTER_COLOR"
         class="svgc_invert"
         filter="url(#filter_readability_theme_treehouse)"
         id="path259" />
      <path
         d="M139 1564H70V1574H139V1564Z"
         fill="#FOOTER_COLOR"
         class="svgc_invert"
         filter="url(#filter_readability_theme_treehouse)"
         id="path261" />
    </g>
  </g>
  <path
     d="M16 401L0 407L16 410.5H696L699.5 407.5L700 407L698.5 406.5L16 401Z"
     fill="#7C6576"
     id="path267" />
  <defs
     id="defs272">
    <clipPath
       id="clip0_148_2">
      <rect
         width="700"
         height="1641"
         fill="#FFFFFF"
         id="rect269" />
    </clipPath>
  </defs>
</svg>
